<?xml version="1.0"?>
<svg version="1.1" xmlns="http://www.w3.org/2000/svg" width="256px" height="256px">
<g>
<path style="fill:#ff0000;stroke:#ff0000" d="M 128,0 64.6564,36.5714 128,73.1428 191.3435,36.5714"/>
<path style="fill:#e60000;stroke:#e60000" d="M 64.6564,36.5714 64.6564,109.7142 128,146.2857 128,73.1428"/>
<path style="fill:#ca0000;stroke:#ca0000" d="M 128,73.1428 128,146.2857 191.3435,109.7142 191.3435,36.5714"/>
<path style="fill:#00ff00;stroke:#00ff00" d="M 64.6564,109.7142 1.3128,146.2857 64.6564,182.8571 128,146.2857"/>
<path style="fill:#00e600;stroke:#00e600" d="M 1.3128,146.2857 1.3128,219.4285 64.6564,256 64.6564,182.8571" />
<path style="fill:#00ca00;stroke:#00ca00" d="M 64.6564,182.8571 64.6564,256 128,219.4285 128,146.2857" />
<path style="fill:#0000ff;stroke:#0000ff" d="M 191.3435,109.7142 128,146.2857 191.3435,182.8571 254.6871,146.2857" />
<path style="fill:#0000e6;stroke:#0000e6" d="M 128,146.2857 128,219.4285 191.3435,256 191.3435,182.8571" />
<path style="fill:#0000ca;stroke:#0000ca" d="M 191.3435,182.8571 191.3435,256 254.6871,219.4285 254.6871,146.2857" />
</g>
</svg>
