<?xml version="1.0"?>
<svg version="1.1" xmlns="http://www.w3.org/2000/svg" width="256px" height="256px">
<g>
<!--
<path style="fill:#f00" d="M 128,0 64.6564,36.5714 64.6564,109.7142 128,146.2857 191.3435,109.7142 191.3435,36.5714" />
<path style="fill:#0f0" d="M 64.6564,109.7142 1.3128,146.2857 1.3128,219.4285 64.6564,256 128,219.4285 128,146.2857" />
<path style="fill:#00f" d="M 191.3435,109.7142 128,146.2857 128,219.4285 191.3435,256 254.6871,219.4285 254.6871,146.2857" />
-->
<path style="fill:#000000" d="M 128,0 64.6564,36.5714 64.6564,109.7142 1.3128,146.2857 1.3128,219.4285 64.6564,256 128,219.4285 191.3435,256 254.6871,219.4285 254.6871,146.2857 191.3435,109.7142 191.3435,36.5714"/>
</g>
</svg>
